<svg width="333" height="334" viewBox="0 0 333 334" fill="none" xmlns="http://www.w3.org/2000/svg">
<path d="M130.042 140.656C130.042 140.656 131.737 126.537 125.351 115.415C118.965 104.293 107.809 101.934 107.809 101.934" stroke="#372828" stroke-width="3"/>
<path d="M114.239 110.293L110.034 102.969L117.979 93.5387L109.182 95.6685L109.168 87.887L104.155 96.6077L97.0248 93.8852L101.229 101.208L91.5949 103.819L100.82 106.312L99.1597 115.055L105.434 108.532L114.239 110.293Z" fill="#C03B11"/>
<path d="M114.239 110.293L110.034 102.969L117.979 93.5387L109.182 95.6685L109.168 87.887L104.155 96.6077L97.0248 93.8852L101.229 101.208L91.5949 103.819L100.82 106.312L99.1597 115.055L105.434 108.532L114.239 110.293Z" fill="#C03B11"/>
<path d="M114.239 110.293L110.034 102.969L117.979 93.5387L109.182 95.6685L109.168 87.887L104.155 96.6077L97.0248 93.8852L101.229 101.208L91.5949 103.819L100.82 106.312L99.1597 115.055L105.434 108.532L114.239 110.293Z" fill="#F4A812"/>
<path d="M110.845 106.216L108.479 102.097L112.5 97.0498L107.888 98.0547L107.73 93.7634L105.247 98.4756L101.423 96.8369L103.789 100.956L98.7429 102.21L103.67 103.763L102.961 108.552L106.154 105.076L110.845 106.216Z" fill="#C03B11"/>
<path d="M110.845 106.216L108.479 102.097L112.5 97.0498L107.888 98.0547L107.73 93.7634L105.247 98.4756L101.423 96.8369L103.789 100.956L98.7429 102.21L103.67 103.763L102.961 108.552L106.154 105.076L110.845 106.216Z" fill="#C03B11"/>
<path d="M110.845 106.216L108.479 102.097L112.5 97.0498L107.888 98.0547L107.73 93.7634L105.247 98.4756L101.423 96.8369L103.789 100.956L98.7429 102.21L103.67 103.763L102.961 108.552L106.154 105.076L110.845 106.216Z" fill="#C03B11"/>
<ellipse cx="155.504" cy="186.51" rx="48.5557" ry="53.7502" transform="rotate(-119.863 155.504 186.51)" fill="black"/>
<rect x="122.314" y="164.686" width="18.1638" height="38.2223" transform="rotate(-119.863 122.314 164.686)" fill="black"/>
<ellipse cx="182.23" cy="156.239" rx="7.5" ry="10.5" transform="rotate(-29.8627 182.23 156.239)" fill="#C4C4C4"/>
</svg>
