<svg width="172" height="190" viewBox="0 0 172 190" fill="none" xmlns="http://www.w3.org/2000/svg">
<path d="M75.6455 74.8215C75.6455 74.8215 77.3406 60.7029 70.9547 49.5807C64.5688 38.4586 53.4132 36.1001 53.4132 36.1001" stroke="#372828" stroke-width="3"/>
<path d="M59.8426 44.4586L55.6379 37.1354L63.5834 27.7048L54.7861 29.8346L54.7717 22.053L49.7586 30.7737L42.6287 28.0512L46.8334 35.3744L37.1988 37.985L46.4238 40.4783L44.7637 49.2214L51.0381 42.6976L59.8426 44.4586Z" fill="#C03B11"/>
<path d="M59.8426 44.4586L55.6379 37.1354L63.5834 27.7048L54.7861 29.8346L54.7717 22.053L49.7586 30.7737L42.6287 28.0512L46.8334 35.3744L37.1988 37.985L46.4238 40.4783L44.7637 49.2214L51.0381 42.6976L59.8426 44.4586Z" fill="#C03B11"/>
<path d="M59.8426 44.4586L55.6379 37.1354L63.5834 27.7048L54.7861 29.8346L54.7717 22.053L49.7586 30.7737L42.6287 28.0512L46.8334 35.3744L37.1988 37.985L46.4238 40.4783L44.7637 49.2214L51.0381 42.6976L59.8426 44.4586Z" fill="#F4A812"/>
<path d="M56.4485 40.3824L54.0834 36.2631L58.1041 31.2159L53.4921 32.2207L53.3344 27.9294L50.851 32.6417L47.0274 31.003L49.3925 35.1223L44.3468 36.3761L49.2742 37.9288L48.5647 42.718L51.7576 39.2416L56.4485 40.3824Z" fill="#C03B11"/>
<path d="M56.4485 40.3824L54.0834 36.2631L58.1041 31.2159L53.4921 32.2207L53.3344 27.9294L50.851 32.6417L47.0274 31.003L49.3925 35.1223L44.3468 36.3761L49.2742 37.9288L48.5647 42.718L51.7576 39.2416L56.4485 40.3824Z" fill="#C03B11"/>
<path d="M56.4485 40.3824L54.0834 36.2631L58.1041 31.2159L53.4921 32.2207L53.3344 27.9294L50.851 32.6417L47.0274 31.003L49.3925 35.1223L44.3468 36.3761L49.2742 37.9288L48.5647 42.718L51.7576 39.2416L56.4485 40.3824Z" fill="#C03B11"/>
<ellipse cx="101.108" cy="120.676" rx="48.5557" ry="53.7502" transform="rotate(-119.863 101.108 120.676)" fill="black"/>
<rect x="67.9181" y="98.8523" width="18.1638" height="38.2223" transform="rotate(-119.863 67.9181 98.8523)" fill="black"/>
</svg>
