<svg width="20" height="20" viewBox="0 0 20 20" fill="none" xmlns="http://www.w3.org/2000/svg">
<path d="M7.04199 14C3.56464 14 0.745691 11.9853 0.745691 9.5C0.745691 7.01472 3.56464 5 7.04199 5C10.5193 5 13.3383 7.01472 13.3383 9.5C13.3383 11.9853 10.5193 14 7.04199 14Z" fill="#4E7320"/>
<path d="M1.48148 7.34L1.48148 11.66H2.02656e-06L2.02656e-06 7.34H1.48148Z" fill="#404040"/>
<path d="M17.4074 13.57C16.069 13.57 15.0648 12.6741 15.0648 11.66C15.0648 10.6459 16.069 9.75 17.4074 9.75C18.7459 9.75 19.75 10.6459 19.75 11.66C19.75 12.6741 18.7459 13.57 17.4074 13.57Z" stroke="black" stroke-width="0.5"/>
<rect x="17.037" y="7.34" width="4.32" height="4.44444" transform="rotate(90 17.037 7.34)" fill="#404040"/>
<line x1="12.5926" y1="8.26" x2="1.48148" y2="8.26" stroke="black" stroke-width="0.4"/>
<line x1="12.5926" y1="10.42" x2="1.48148" y2="10.42" stroke="black" stroke-width="0.4"/>
<line x1="11.8519" y1="6.82" x2="2.22222" y2="6.82" stroke="black" stroke-width="0.4"/>
<line x1="11.8519" y1="11.86" x2="2.22222" y2="11.86" stroke="black" stroke-width="0.4"/>
<line x1="10.5704" y1="5.9" x2="10.5704" y2="13.1" stroke="black" stroke-width="0.4"/>
<line x1="8.34815" y1="5.18" x2="8.34815" y2="13.82" stroke="black" stroke-width="0.4"/>
<line x1="5.38519" y1="5.18" x2="5.38519" y2="13.82" stroke="black" stroke-width="0.4"/>
<line x1="3.16297" y1="5.9" x2="3.16297" y2="13.1" stroke="black" stroke-width="0.4"/>
</svg>
