<svg width="270" height="122" viewBox="0 0 270 122" fill="none" xmlns="http://www.w3.org/2000/svg">
<path d="M154.851 20.2288L195.851 3.22877" stroke="#390000" stroke-width="6"/>
<path d="M135 71C157.644 71 176 58.0163 176 42C176 25.9837 157.644 13 135 13C112.356 13 94 25.9837 94 42C94 58.0163 112.356 71 135 71Z" fill="#390000"/>
<path d="M219.71 109.276C210.69 117.157 199.119 121.5 187.141 121.5H83.682C71.842 121.5 60.394 117.256 51.415 109.537L14.644 77.9292C10.072 73.9983 12.852 66.5 18.882 66.5H251.349C257.354 66.5 260.148 73.9443 255.626 77.8948L219.71 109.276Z" fill="#D92929" stroke="black"/>
<path d="M47.547 65.5H222.473L181.583 35.5H89.11L47.547 65.5Z" fill="#D92929" stroke="black"/>
<path d="M135 118C146.046 118 155 109.046 155 98C155 86.9543 146.046 78 135 78C123.954 78 115 86.9543 115 98C115 109.046 123.954 118 135 118Z" fill="black"/>
<path d="M186 118C197.046 118 206 109.046 206 98C206 86.9543 197.046 78 186 78C174.954 78 166 86.9543 166 98C166 109.046 174.954 118 186 118Z" fill="black"/>
<path d="M84 118C95.0457 118 104 109.046 104 98C104 86.9543 95.0457 78 84 78C72.9543 78 64 86.9543 64 98C64 109.046 72.9543 118 84 118Z" fill="black"/>
</svg>
