<svg width="270" height="122" viewBox="0 0 270 122" fill="none" xmlns="http://www.w3.org/2000/svg">
<path d="M115.149 20.2288L74.149 3.22878" stroke="black" stroke-width="6"/>
<path d="M135 71C112.356 71 94 58.0163 94 42C94 25.9837 112.356 13 135 13C157.644 13 176 25.9837 176 42C176 58.0163 157.644 71 135 71Z" fill="#2C3C0B"/>
<path d="M50.29 109.276C59.31 117.157 70.881 121.5 82.859 121.5H186.318C198.158 121.5 209.606 117.256 218.585 109.537L255.356 77.9292C259.928 73.9983 257.149 66.5 251.118 66.5H18.65C12.646 66.5 9.85199 73.9443 14.374 77.8948L50.29 109.276Z" fill="#225821" stroke="black"/>
<path d="M222.453 65.5H47.527L88.417 35.5H180.89L222.453 65.5Z" fill="#225821" stroke="black"/>
<path d="M135 118C123.954 118 115 109.046 115 98C115 86.9543 123.954 78 135 78C146.046 78 155 86.9543 155 98C155 109.046 146.046 118 135 118Z" fill="black"/>
<path d="M84 118C72.9543 118 64 109.046 64 98C64 86.9543 72.9543 78 84 78C95.0457 78 104 86.9543 104 98C104 109.046 95.0457 118 84 118Z" fill="black"/>
<path d="M186 118C174.954 118 166 109.046 166 98C166 86.9543 174.954 78 186 78C197.046 78 206 86.9543 206 98C206 109.046 197.046 118 186 118Z" fill="black"/>
</svg>
